<?xml version="1.0" encoding="UTF-8"?>
<!DOCTYPE svg PUBLIC "-//W3C//DTD SVG 1.1//EN" "http://www.w3.org/Graphics/SVG/1.1/DTD/svg11.dtd">
<!-- Creator: CorelDRAW 2019 (64-Bit) -->
<svg xmlns="http://www.w3.org/2000/svg" xml:space="preserve" width="210mm" height="297mm" version="1.1" style="shape-rendering:geometricPrecision; text-rendering:geometricPrecision; image-rendering:optimizeQuality; fill-rule:evenodd; clip-rule:evenodd"
viewBox="0 0 21000 29700"
 xmlns:xlink="http://www.w3.org/1999/xlink"
 xmlns:xodm="http://www.corel.com/coreldraw/odm/2003">
 <defs>
  <style type="text/css">
   <![CDATA[
    .fil0 {fill:#BDBFC1}
   ]]>
  </style>
 </defs>
 <g id="Layer_x0020_1">
  <metadata id="CorelCorpID_0Corel-Layer"/>
  <g>
   <path id="instagram-_x005b__x0023_167_x005d_" class="fil0" d="M10390.72 14588.66c-43.07,1.95 -80.4,12.48 -110.55,42.5 -30.25,30.17 -40.65,67.65 -42.6,110.27 -1.21,26.6 -8.29,227.58 12.25,280.29 13.84,35.56 41.12,62.9 77,76.79 16.75,6.51 35.86,10.93 63.9,12.21 234.44,10.61 321.35,4.84 357.99,-89 6.51,-16.7 10.98,-35.79 12.22,-63.76 10.71,-235.05 -1.74,-285.99 -42.6,-326.8 -32.41,-32.33 -70.53,-54.34 -327.61,-42.5l0 0zm2.16 474.79c-25.67,-1.15 -39.6,-5.43 -48.89,-9.03 -23.38,-9.09 -40.94,-26.58 -49.97,-49.82 -15.64,-40.05 -10.45,-230.26 -9.06,-261.04 1.37,-30.15 7.48,-57.7 28.75,-78.97 26.33,-26.27 60.34,-39.13 291.94,-28.68 30.23,1.36 57.84,7.46 79.17,28.68 26.32,26.26 39.38,60.53 28.75,291.24 -1.16,25.61 -5.45,39.5 -9.06,48.77 -23.83,61.06 -78.64,69.54 -311.63,58.85l0 0zm215.33 -353.96c0,17.39 14.13,31.52 31.59,31.52 17.45,0 31.62,-14.13 31.62,-31.52 0,-17.38 -14.17,-31.51 -31.62,-31.51 -17.46,0 -31.59,14.13 -31.59,31.51l0 0zm-244.14 140.19c0,74.48 60.53,134.86 135.19,134.86 74.67,0 135.19,-60.38 135.19,-134.86 0,-74.48 -60.52,-134.83 -135.19,-134.83 -74.66,0 -135.19,60.35 -135.19,134.83l0 0zm47.45 0c0,-48.32 39.28,-87.53 87.74,-87.53 48.47,0 87.75,39.21 87.75,87.53 0,48.35 -39.28,87.56 -87.75,87.56 -48.46,0 -87.74,-39.21 -87.74,-87.56z"/>
  </g>
 </g>
</svg>
